<svg width="562" height="89" viewBox="0 0 562 89" fill="none" xmlns="http://www.w3.org/2000/svg">
<path d="M50.8381 23.1818C50.3395 18.9716 48.3175 15.7031 44.772 13.3764C41.2266 11.0497 36.8778 9.88635 31.7259 9.88635C27.9588 9.88635 24.6626 10.4957 21.8374 11.7145C19.0398 12.9332 16.8516 14.609 15.2727 16.7418C13.7216 18.8746 12.946 21.2983 12.946 24.0128C12.946 26.2841 13.4862 28.2368 14.5664 29.8711C15.6744 31.4776 17.087 32.821 18.8043 33.9013C20.5217 34.9538 22.3221 35.8263 24.2056 36.5188C26.0891 37.1836 27.8203 37.7237 29.3991 38.1392L38.0412 40.4659C40.2571 41.0476 42.7223 41.8508 45.4368 42.8757C48.179 43.9006 50.7965 45.2994 53.2894 47.0721C55.81 48.8171 57.8874 51.0607 59.5217 53.8029C61.1559 56.5451 61.973 59.9105 61.973 63.8991C61.973 68.4972 60.7681 72.652 58.3583 76.3636C55.9762 80.0753 52.4862 83.0252 47.8881 85.2134C43.3178 87.4016 37.7642 88.4957 31.2273 88.4957C25.1335 88.4957 19.8569 87.5124 15.3974 85.5458C10.9656 83.5792 7.4755 80.837 4.9272 77.3192C2.40661 73.8015 0.980114 69.7159 0.647728 65.0625H11.2841C11.5611 68.2756 12.6413 70.9347 14.5249 73.0398C16.4361 75.1172 18.8459 76.6683 21.7543 77.6932C24.6903 78.6903 27.848 79.1889 31.2273 79.1889C35.1605 79.1889 38.6921 78.5518 41.8221 77.2777C44.9521 75.9758 47.4311 74.1754 49.2592 71.8764C51.0874 69.5497 52.0014 66.8352 52.0014 63.7329C52.0014 60.9077 51.212 58.6087 49.6332 56.8359C48.0543 55.0632 45.9769 53.6229 43.4009 52.5149C40.8249 51.407 38.0412 50.4375 35.0497 49.6065L24.5795 46.615C17.9318 44.7038 12.669 41.9755 8.79119 38.43C4.91335 34.8846 2.97443 30.245 2.97443 24.5114C2.97443 19.7471 4.26243 15.5923 6.83842 12.0469C9.44212 8.47371 12.9322 5.70382 17.3086 3.73721C21.7127 1.74289 26.6293 0.745728 32.0582 0.745728C37.5426 0.745728 42.4176 1.72904 46.6832 3.69566C50.9489 5.63458 54.3281 8.29367 56.821 11.6729C59.3416 15.0522 60.6712 18.8885 60.8097 23.1818H50.8381Z" fill="#C4C4C4"/>
<path d="M96.3646 88.4957C92.3206 88.4957 88.6505 87.734 85.3543 86.2106C82.0582 84.6594 79.4406 82.4297 77.5017 79.5213C75.5628 76.5852 74.5933 73.0398 74.5933 68.8849C74.5933 65.2287 75.3135 62.2649 76.7538 59.9936C78.1942 57.6946 80.1192 55.8942 82.529 54.5923C84.9388 53.2905 87.5979 52.321 90.5063 51.6839C93.4424 51.0192 96.3923 50.4929 99.3561 50.1051C103.234 49.6065 106.378 49.2326 108.788 48.9833C111.225 48.7063 112.998 48.2493 114.106 47.6122C115.241 46.9751 115.809 45.8672 115.809 44.2883V43.956C115.809 39.8565 114.687 36.6712 112.444 34.3998C110.228 32.1285 106.862 30.9929 102.348 30.9929C97.6665 30.9929 93.9964 32.0177 91.3373 34.0675C88.6782 36.1172 86.8085 38.3054 85.7282 40.6321L76.4214 37.3082C78.0834 33.4304 80.2993 30.4112 83.0692 28.2507C85.8667 26.0625 88.9136 24.5391 92.2098 23.6804C95.5336 22.794 98.8021 22.3508 102.015 22.3508C104.065 22.3508 106.419 22.6001 109.078 23.0987C111.765 23.5696 114.355 24.5529 116.848 26.0486C119.369 27.5444 121.46 29.8018 123.122 32.821C124.784 35.8402 125.615 39.8842 125.615 44.9531V87H115.809V78.3579H115.311C114.646 79.7429 113.538 81.2248 111.987 82.8036C110.436 84.3824 108.372 85.7258 105.796 86.8338C103.22 87.9418 100.076 88.4957 96.3646 88.4957ZM97.8604 79.6875C101.738 79.6875 105.007 78.9258 107.666 77.4023C110.353 75.8789 112.375 73.9123 113.732 71.5025C115.117 69.0927 115.809 66.5582 115.809 63.8991V54.9247C115.394 55.4233 114.48 55.8803 113.067 56.2958C111.682 56.6836 110.076 57.0298 108.247 57.3345C106.447 57.6115 104.688 57.8608 102.971 58.0824C101.281 58.2763 99.9101 58.4425 98.8575 58.581C96.3092 58.9133 93.9271 59.4535 91.7112 60.2013C89.523 60.9215 87.7503 62.0156 86.393 63.4837C85.0635 64.924 84.3987 66.8906 84.3987 69.3835C84.3987 72.7905 85.659 75.3665 88.1796 77.1115C90.7279 78.8288 93.9548 79.6875 97.8604 79.6875Z" fill="#C4C4C4"/>
<path d="M153.317 1.90908V87H143.512V1.90908H153.317Z" fill="#C4C4C4"/>
<path d="M197.202 88.3295C191.441 88.3295 186.386 86.9584 182.037 84.2163C177.716 81.4741 174.337 77.6378 171.899 72.7074C169.49 67.777 168.285 62.0156 168.285 55.4233C168.285 48.7756 169.49 42.9726 171.899 38.0145C174.337 33.0565 177.716 29.2063 182.037 26.4641C186.386 23.7219 191.441 22.3508 197.202 22.3508C202.964 22.3508 208.005 23.7219 212.326 26.4641C216.675 29.2063 220.054 33.0565 222.464 38.0145C224.901 42.9726 226.12 48.7756 226.12 55.4233C226.12 62.0156 224.901 67.777 222.464 72.7074C220.054 77.6378 216.675 81.4741 212.326 84.2163C208.005 86.9584 202.964 88.3295 197.202 88.3295ZM197.202 79.5213C201.579 79.5213 205.18 78.3995 208.005 76.1559C210.83 73.9123 212.921 70.9623 214.279 67.3061C215.636 63.6498 216.315 59.6889 216.315 55.4233C216.315 51.1577 215.636 47.1829 214.279 43.4989C212.921 39.815 210.83 36.8373 208.005 34.566C205.18 32.2947 201.579 31.1591 197.202 31.1591C192.826 31.1591 189.225 32.2947 186.4 34.566C183.574 36.8373 181.483 39.815 180.126 43.4989C178.769 47.1829 178.09 51.1577 178.09 55.4233C178.09 59.6889 178.769 63.6498 180.126 67.3061C181.483 70.9623 183.574 73.9123 186.4 76.1559C189.225 78.3995 192.826 79.5213 197.202 79.5213Z" fill="#C4C4C4"/>
<path d="M250.893 48.6094V87H241.088V23.1818H250.561V33.1534H251.392C252.887 29.9126 255.159 27.3089 258.206 25.3423C261.252 23.348 265.186 22.3508 270.005 22.3508C274.326 22.3508 278.107 23.2372 281.348 25.0099C284.589 26.755 287.109 29.4141 288.91 32.9872C290.71 36.5327 291.61 41.0199 291.61 46.4489V87H281.805V47.1136C281.805 42.1001 280.503 38.1946 277.899 35.397C275.296 32.5717 271.723 31.1591 267.18 31.1591C264.05 31.1591 261.252 31.8377 258.787 33.1949C256.35 34.5522 254.425 36.5327 253.012 39.1364C251.599 41.74 250.893 44.8977 250.893 48.6094Z" fill="#C4C4C4"/>
<path d="M310.858 87V1.90908H321.162V39.8011H366.532V1.90908H376.836V87H366.532V48.9418H321.162V87H310.858Z" fill="#C4C4C4"/>
<path d="M436.354 60.9077V23.1818H446.16V87H436.354V76.1974H435.69C434.194 79.4382 431.867 82.1942 428.709 84.4655C425.552 86.7092 421.563 87.831 416.744 87.831C412.755 87.831 409.209 86.9584 406.107 85.2134C403.005 83.4407 400.567 80.7816 398.795 77.2361C397.022 73.663 396.136 69.1619 396.136 63.7329V23.1818H405.941V63.0682C405.941 67.7216 407.243 71.4332 409.846 74.2031C412.478 76.973 415.829 78.3579 419.901 78.3579C422.339 78.3579 424.818 77.7347 427.338 76.4883C429.887 75.2418 432.019 73.3306 433.737 70.7546C435.482 68.1786 436.354 64.8963 436.354 60.9077Z" fill="#C4C4C4"/>
<path d="M473.924 48.6094V87H464.119V23.1818H473.592V33.1534H474.423C475.919 29.9126 478.19 27.3089 481.237 25.3423C484.284 23.348 488.217 22.3508 493.037 22.3508C497.358 22.3508 501.138 23.2372 504.379 25.0099C507.62 26.755 510.141 29.4141 511.941 32.9872C513.741 36.5327 514.642 41.0199 514.642 46.4489V87H504.836V47.1136C504.836 42.1001 503.534 38.1946 500.931 35.397C498.327 32.5717 494.754 31.1591 490.211 31.1591C487.081 31.1591 484.284 31.8377 481.819 33.1949C479.381 34.5522 477.456 36.5327 476.043 39.1364C474.631 41.74 473.924 44.8977 473.924 48.6094Z" fill="#C4C4C4"/>
<path d="M560.314 23.1818V31.4915H527.241V23.1818H560.314ZM536.88 7.89204H546.686V68.7187C546.686 71.4886 547.087 73.566 547.891 74.951C548.722 76.3082 549.774 77.2223 551.048 77.6932C552.35 78.1364 553.721 78.3579 555.162 78.3579C556.242 78.3579 557.128 78.3025 557.821 78.1917C558.513 78.0533 559.067 77.9425 559.483 77.8594L561.477 86.6676C560.812 86.9169 559.884 87.1662 558.693 87.4155C557.502 87.6925 555.993 87.831 554.165 87.831C551.395 87.831 548.68 87.2354 546.021 86.0444C543.39 84.8533 541.201 83.0391 539.456 80.6016C537.739 78.1641 536.88 75.0895 536.88 71.3778V7.89204Z" fill="#C4C4C4"/>
</svg>
